<svg id="Layer_1" data-name="Layer 1" xmlns="http://www.w3.org/2000/svg" xmlns:xlink="http://www.w3.org/1999/xlink" viewBox="0 0 131.42 54"><defs><style>.cls-1{fill:#1d1d1b;}.cls-2{fill:url(#linear-gradient);}</style><linearGradient id="linear-gradient" x1="14.41" y1="705.79" x2="14.41" y2="684.99" gradientTransform="translate(0 -668)" gradientUnits="userSpaceOnUse"><stop offset="0.01" stop-color="#f2db66"/><stop offset="0.03" stop-color="#dfc553"/><stop offset="0.07" stop-color="#c5a537"/><stop offset="0.11" stop-color="#b18c2f"/><stop offset="0.15" stop-color="#a67e2d"/><stop offset="0.18" stop-color="#a2792c"/><stop offset="0.2" stop-color="#a67f2d"/><stop offset="0.51" stop-color="#f2db66"/><stop offset="0.58" stop-color="#ecd25f"/><stop offset="0.69" stop-color="#dbba4b"/><stop offset="0.71" stop-color="#d7b445"/><stop offset="1" stop-color="#98722b"/></linearGradient></defs><title>kantarlogo</title><path class="cls-1" d="M28.38,37.79,36,17h3.82l7.63,20.8h-4l-1.8-4.92H34.18l-1.8,4.91Zm7.11-8.47h4.85l-2.42-6.67Z"/><path class="cls-1" d="M82.3,37.79,89.92,17h3.82l7.63,20.8h-4l-1.8-4.92H88.11l-1.8,4.91Zm7.11-8.47h4.85l-2.42-6.67Z"/><path class="cls-1" d="M49.35,17h3.06L63.06,30.22V17h4v20.8H64.3L53.36,24.23V37.79h-4Z"/><path class="cls-1" d="M84.45,17v3.56H79V37.79H75V20.55H69.47V17Z"/><path class="cls-1" d="M121,37.79l-6.5-9a5.29,5.29,0,0,0,2-1.32,6.49,6.49,0,0,0,0-8.62c-1.16-1.21-2.74-1.87-5.41-1.87h-7.82v20.8h4V29.32h3.27l6.07,8.47ZM107.29,20.55h3.63a3.13,3.13,0,0,1,2.53.83,2.57,2.57,0,0,1,.69,1.78,2.5,2.5,0,0,1-.69,1.75,3.14,3.14,0,0,1-2.53.83h-3.63Z"/><polygon class="cls-1" points="27.42 16.99 23.07 16.99 15.61 27.39 23.07 37.79 27.42 37.79 19.97 27.39 27.42 16.99"/><rect class="cls-2" x="13.31" y="16.99" width="2.21" height="20.8"/><rect class="cls-1" x="10.61" y="16.99" width="2.7" height="20.8"/></svg>